<svg width="23" height="23" viewBox="0 0 23 23" fill="none" xmlns="http://www.w3.org/2000/svg">
<path d="M15.6472 11.2198L22.2381 4.62885C22.3962 4.4708 22.3962 4.21422 22.2381 4.05617L18.3033 0.119282C18.1452 -0.0387687 17.8886 -0.0387687 17.7306 0.119282L11.1397 6.71019L4.62884 0.201386C4.47079 0.0433354 4.21421 0.0433354 4.05616 0.201386L0.11927 4.13622C-0.0387802 4.29427 -0.0387802 4.55085 0.11927 4.7089L6.62807 11.2177L0.201374 17.6465C0.0433239 17.8045 0.0433239 18.0611 0.201374 18.2191L4.13621 22.154C4.29426 22.312 4.55084 22.312 4.70889 22.154L11.1356 15.7273L17.6444 22.2361C17.8024 22.3941 18.059 22.3941 18.2171 22.2361L22.1519 18.3012C22.31 18.1432 22.31 17.8866 22.1519 17.7286L15.6431 11.2198H15.6472Z" fill="currentColor"/>
</svg>
