<?xml version="1.0" encoding="UTF-8"?>
<svg id="Layer_4" xmlns="http://www.w3.org/2000/svg" version="1.1" viewBox="0 0 46.9 46.3">
  <!-- Generator: Adobe Illustrator 29.1.0, SVG Export Plug-In . SVG Version: 2.1.0 Build 142)  -->
  <path fill="currentColor" d="M23.9,5.1C13.9,5.1,5.8,13.2,5.8,23.2s8.1,18,18,18,18-8.1,18-18S33.8,5.1,23.9,5.1ZM35.1,29.4l-4,4-6.7-6.7-6.7,6.7-4-4,6.7-6.7-6.7-6.7,4-4,6.7,6.7,6.7-6.7,4,4-6.7,6.7,6.7,6.7Z"/>
  <polygon fill="black" points="28.4 22.7 35.1 29.4 31.1 33.4 24.4 26.7 17.7 33.4 13.7 29.4 20.4 22.7 13.7 16 17.7 12 24.4 18.7 31.1 12 35.1 16 28.4 22.7"/>
</svg>