<?xml version="1.0" encoding="UTF-8"?>
<svg xmlns="http://www.w3.org/2000/svg" version="1.1" viewBox="0 0 884 241">
  <!-- Generator: Adobe Illustrator 29.1.0, SVG Export Plug-In . SVG Version: 2.1.0 Build 142)  -->
  <g id="Layer_1">
    <path fill="currentColor" d="M101.6,51.2c-4.8,1.1-7.4,3.2-9.2,7.7-2.9,6.8.2,11.4,10.2,15.4,5,2,6,2.8,6,4.8s-.5,2.5-4.7,2.7c-2.8.2-5.9-.3-7.7-1.2-1.7-.9-3.2-1.6-3.6-1.6s-.6,2-.6,4.4c0,4.3,0,4.4,4.5,5.6,2.5.7,7,1,10.2.8,5-.4,6.1-.9,9-4.1,2.6-2.8,3.3-4.5,3.3-7.6,0-5.4-3.2-8.9-10.5-11.5-6.9-2.5-9-5-6.1-7.2,2.7-2,5.9-1.8,10.6.6l4,2v-4.5c0-3.8-.4-4.7-2.2-5.4-4-1.5-9.2-1.8-13.2-.9ZM155,69.5v19.5h9v-39h-9v19.5ZM518.4,51.4c-1.4,3.6,0,5.1,4.6,5.1s4.5-.1,4.5-3-.3-3-4.3-3.3c-3.1-.2-4.4.1-4.8,1.2ZM534,69.5v19.5h9v-39h-9v19.5ZM342,69.9v19.1h10.8c12.3,0,16.3-1.4,19.9-6.8,4.3-6.5,4-18.6-.8-24.6-3.6-4.6-7.5-5.9-19.2-6.4l-10.8-.5v19.1ZM487,70v19h9v-13.9l7.2-.3,7.2-.3v-7l-7.2-.3-7.2-.3v-7.9h17.1l-.3-3.8-.3-3.8-12.8-.3-12.8-.3v19ZM233,56.4c0,2.5-.5,3.5-2,3.9-1.5.4-2,1.4-2,3.6s.4,3.1,2,3.1,2,.7,2,8.1c0,12.5,2.4,15.5,11.6,14.8,3.7-.3,3.9-.5,4.2-4.1.3-3.6.2-3.8-2.5-3.5l-2.8.3-.3-7.8-.3-7.8h3.1c2.9,0,3.1-.2,2.8-3.2-.3-2.7-.8-3.3-3.1-3.6-2.4-.3-2.8-.7-2.8-3.8v-3.4h-10v3.4ZM644.2,56.2c-1.7,1.7-1.7,118.9,0,120.6.9.9,14.9,1.2,56.9,1.2h55.7l3.6,10.2c2,5.6,4.7,13.4,5.9,17.2,2,6.1,2.7,7,4.9,7.3,2.4.3,3-.5,7.2-8.9l4.6-9.2,12.3,12.1c6.7,6.7,12.8,12.1,13.5,12.1,2.2,0,14.1-12.2,14.1-14.4s-4.3-6.3-12-14.1l-12-12,9.3-4.5c7.1-3.5,9.4-5.1,9.6-6.8.4-2.6-2.1-3.8-19.6-9.6l-11.2-3.7v-48.2c0-36.2-.3-48.5-1.2-49.4-1.7-1.7-139.9-1.7-141.6,0ZM132.6,60c-6.1,1.9-9.6,7.3-9.6,14.7s5.9,15.3,15.2,15.3,9.8-1.3,9.8-5.5,0-3.9-5.1-2.5c-5,1.4-10.8-.9-10.8-4.3,0-.4,4.3-.8,9.6-.8h9.6l-.7-4.2c-.9-5.4-2.9-9.3-5.7-11.2-3-1.9-8.6-2.7-12.1-1.6ZM179.6,60c-6.1,1.9-9.6,7.3-9.6,14.7s5.9,15.3,15.2,15.3,9.8-1.3,9.8-5.5,0-3.9-5.1-2.5c-5,1.4-10.8-.9-10.8-4.3,0-.4,4.3-.8,9.6-.8h9.6l-.7-4.2c-.9-5.4-2.9-9.3-5.7-11.2-3-1.9-8.6-2.7-12.1-1.6ZM277.9,59.9c-7.4,2.4-9.9,6.3-9.9,15.3,0,9.2,5.3,14.8,14,14.8s15-5.4,15-14.8c0-9.9-3.7-14.5-12.6-15.6-2.1-.3-5-.1-6.4.3ZM311.1,60.2c-2.4.4-5.4,1.5-6.8,2.3-2.3,1.5-2.4,2-2.4,14v12.5h9v-22h11.1l-.3-3.2c-.3-2.7-.8-3.3-3.3-3.8-1.6-.3-5-.2-7.4.2ZM362.5,61.3c3.2,2.7,4.3,8.9,2.5,14.2-1.3,4.1-5.5,6.5-11,6.5h-3v-23h4.4c3.2,0,5.2.6,7.1,2.3ZM390.1,60.2c-2.4.4-5.4,1.5-6.8,2.3-2.3,1.5-2.4,2-2.4,14v12.5h9v-22h11.1l-.3-3.2c-.3-2.7-.8-3.3-3.3-3.8-1.6-.3-5-.2-7.4.2ZM412.9,59.9c-7.4,2.4-9.9,6.3-9.9,15.3,0,9.2,5.3,14.8,14,14.8s15-5.4,15-14.8c0-9.9-3.7-14.5-12.6-15.6-2.1-.3-5-.1-6.4.3ZM445,60c-1.9.5-4.5,2.1-5.8,3.5-2.2,2.6-2.3,3.2-2,19.3l.3,16.7h8l.3-5.1.3-5.1,4.8.5c6.7.6,10.7-1.6,13.3-7.5,3.4-7.6,1.3-16.9-4.5-20.7-2.9-1.9-10.3-2.7-14.7-1.6ZM558.6,60c-6.1,1.9-9.6,7.3-9.6,14.7s5.9,15.3,15.2,15.3,9.8-1.3,9.8-5.5,0-3.9-5.1-2.5c-5,1.4-10.8-.9-10.8-4.3,0-.4,4.3-.8,9.6-.8h9.6l-.7-4.2c-.9-5.4-2.9-9.3-5.7-11.2-3-1.9-8.6-2.7-12.1-1.6ZM207.2,62c-4.4,2.7-6.5,7.9-6,14.7.3,3.8,1.1,6,2.9,7.9,4.4,4.8,12.3,6.7,18.4,4.4,2.2-.8,2.6-1.6,2.6-5s-.2-4-1.9-3c-2.9,1.6-9.7,1.3-11.5-.5-1-1-1.6-3.3-1.6-6s.5-4.7,2.5-6c2.5-1.6,7-1.6,10.8,0,1.5.7,1.8.2,1.8-3.2s-.4-4.1-2.2-4.6c-4.8-1.3-12.2-.6-15.6,1.4ZM586.5,60.9c-8.7,3.6-7.3,15.9,2.1,17.6,4.1.8,6.4,3.1,4,4-1.7.6-6.5.1-10.4-1.1-2.2-.7-2.3-.5-2,2.6.4,4.1,3.3,5.9,9.8,5.9,6.3,0,11.2-2.7,12.4-6.7,1.3-4.5-.7-8.8-4.7-10.3-6.9-2.6-7.7-3-7.7-4.6s.8-1.5,4.2-1.2c2.3.2,5,.8,6,1.2,1.5.7,1.8.2,1.8-2.7s-.4-3.7-3.1-4.6c-3.6-1.3-9.5-1.3-12.4-.2ZM518,75v14h10v-28h-10v14ZM780,95.7v32.7l-17.3-17.2c-9.5-9.5-17.9-17.2-18.7-17.2s-11.9,10.5-24.7,23.2l-23.3,23.2-8.3-8.2c-4.6-4.5-8.7-8.2-9.2-8.2s-7.1,6.2-14.7,13.7l-13.8,13.7V63h130v32.7ZM140.2,68.2l2.2,2.2-4.9.3c-5.9.4-6.9-.4-3.8-2.9,3-2.4,3.6-2.4,6.4.3ZM187.2,68.2l2.2,2.2-4.9.3c-5.9.4-6.9-.4-3.8-2.9,3-2.4,3.6-2.4,6.4.3ZM566.2,68.2l2.2,2.2-4.9.3c-5.9.4-6.9-.4-3.8-2.9,3-2.4,3.6-2.4,6.4.3ZM286.8,68.2c1.8,1.8,1.5,10.8-.5,13-2,2.2-5.7,2.4-7.8.3-1.9-1.9-2.2-11.4-.4-13.2,1.5-1.5,7-1.5,8.6,0ZM421.8,68.2c1.8,1.8,1.5,10.8-.5,13-2,2.2-5.7,2.4-7.8.3-1.9-1.9-2.2-11.4-.4-13.2,1.5-1.5,7-1.5,8.6,0ZM455.4,69.2c3.5,5,.7,13.8-4.4,13.8s-5.1-.9-5.1-7.9.3-7,.7-7.4c1.6-1.6,7.3-.6,8.8,1.6ZM678.4,80.9c-11.2,6.8-10.8,22.7.7,28.9,11.4,6.1,24.9-3,23.7-16-.5-5.5-2.8-9.1-7.7-12.5-4.3-2.9-12.2-3.1-16.6-.3ZM693.1,88.9c4.9,4.9,3.1,12.9-3.4,15-6.6,2.2-13.3-3.3-12.3-9.9,1.2-7.8,10.1-10.6,15.7-5.1ZM762.2,120.7l17.8,17.7v6.4c0,4.7-.3,6.2-1.2,5.9-.7-.3-7.7-2.6-15.5-5.2-19.5-6.5-19.9-6.1-13.2,12.4,2.2,6.1,4,11.4,4,11.6s-23.4.4-52,.4h-52v-4.3c0-4.2.4-4.6,14.3-18.5l14.3-14.2,8,8c4.4,4.4,8.6,8,9.5,8s11.9-10.4,24.5-23c12.6-12.7,23.2-23,23.5-23s8.5,8,18.3,17.7ZM422.7,125.1c-1.4,1.1-3.1,3.8-3.7,6-.8,2.9-1.6,3.9-3,3.9s-2,.7-2,3.5.4,3.5,2,3.5,2,.7,2,10.5v10.5h9v-21h3c2.8,0,3-.3,3-3.5s-.2-3.5-3-3.5-3-.5-3-1.4c0-2,2.7-3.9,4.5-3.3,1.2.5,1.5-.3,1.5-3.4s0-4-3.9-4-4.9.8-6.5,2.1ZM252.7,124.7c-.4.4-.7,1.9-.7,3.5,0,2.7.2,2.8,4.5,2.8s4.5,0,4.5-3.5-.1-3.5-3.8-3.5-4.1.3-4.5.7ZM400.2,128.2c.3,3.1.6,3.3,4.6,3.6l4.2.3v-3.6q0-3.6-4.6-3.6c-4.5,0-4.6,0-4.2,3.2ZM557.5,136c-6.8,8.5-8,10.6-8,13.7v3.7l7.8.3,7.8.3v8.9h9v-4.4c0-3.8.3-4.5,2.2-4.8,1.8-.3,2.3-1.1,2.6-4.1.3-3.4,0-3.8-2.2-3.8h-2.6v-20h-4.2c-4.2,0-4.4.2-12.2,10ZM122.3,135.4c-1.7.8-3.7,2.3-4.2,3.4-.6,1.2-1.1,8.5-1.1,18.1v16.1h9v-9.7l5.4.4c5.1.4,5.6.2,9.2-3.1l3.9-3.5v-8.1c0-7.7-.1-8.2-3.2-11.3-2.8-2.8-4-3.3-9.5-3.5-3.9-.2-7.5.2-9.5,1.1ZM156.6,135.1c-6.5,1.6-6.6,1.9-6.6,15.6v12.4h9v-21.1l4.2.3,4.2.3.3,10.2.3,10.2h8.9v-11.4c0-10.6-.2-11.7-2.3-14.2-2-2.3-3.2-2.8-8.2-3-3.2-.2-7.7.2-9.8.7ZM191.1,135.3c-5,1.8-7.4,5.6-7.9,12.9-.3,4.7,0,7,1.3,9.5,2.8,5.2,10.7,7.9,15.6,5.3,1.6-.8,1.9-.7,1.9.8,0,4-5.4,5.4-12.8,3.3l-3.2-.9v3.9c0,3.4.3,4,2.8,4.7,4.7,1.3,12.6.7,16.1-1.1,5-2.6,6.2-6.6,6.2-20.6s-.5-13-1.1-14.1c-2.3-4.3-11.7-6.1-18.8-3.5ZM272.3,135.4c-1.7.8-3.7,2.3-4.2,3.4-.6,1.2-1.1,8.5-1.1,18.1v16.1h9v-9.7l5.4.4c5.1.4,5.6.2,9.2-3.1l3.9-3.5v-8.1c0-7.7-.1-8.2-3.2-11.3-2.8-2.8-4-3.3-9.5-3.5-3.9-.2-7.5.2-9.5,1.1ZM307.1,135.3c-5,1.8-7.4,5.6-7.9,12.9-.3,4.7,0,7,1.3,9.5,2.8,5.2,10.7,7.9,15.6,5.3,1.6-.8,1.9-.7,1.9.8,0,4-5.4,5.4-12.8,3.3l-3.2-.9v3.9c0,3.4.3,4,2.8,4.7,4.7,1.3,12.6.7,16.1-1.1,5-2.6,6.2-6.6,6.2-20.6s-.5-13-1.1-14.1c-2.3-4.3-11.7-6.1-18.8-3.5ZM375.1,135.3c-5,1.8-7.4,5.6-7.9,12.9-.3,4.7,0,7,1.3,9.5,2.8,5.2,10.7,7.9,15.6,5.3,1.6-.8,1.9-.7,1.9.8,0,4-5.4,5.4-12.8,3.3l-3.2-.9v3.9c0,3.4.3,4,2.8,4.7,4.7,1.3,12.6.7,16.1-1.1,5-2.6,6.2-6.6,6.2-20.6s-.5-13-1.1-14.1c-2.3-4.3-11.7-6.1-18.8-3.5ZM472.6,135.1c-6.5,1.6-6.6,1.9-6.6,15.6v12.4h9v-21h3.9c4.8,0,5.1.6,5.1,12.1v8.9h9v-21.1l3.8.3,3.8.3.3,10.2.3,10.2h8.9v-11.4c0-10.7-.2-11.6-2.4-14.2-2.5-2.9-4.6-3.2-17.1-2.4-1.6.1-5.5,0-8.5-.3-3-.3-7.3,0-9.4.5ZM522.3,135.4c-1.7.8-3.7,2.3-4.2,3.4-.6,1.2-1.1,8.5-1.1,18.1v16.1h9v-9.7l5.4.4c5.1.4,5.6.2,9.2-3.1l3.9-3.5v-8.1c0-7.7-.1-8.2-3.2-11.3-2.8-2.8-4-3.3-9.5-3.5-3.9-.2-7.5.2-9.5,1.1ZM252.7,135.7c-.4.4-.7,7.4-.7,15.6,0,14.1-.1,15-2,15.5-2.9.8-2.9,7.3,0,7.3s8.7-2.7,9.9-4.9c.6-1.2,1.1-8.5,1.1-18.1v-16.1h-3.8c-2.1,0-4.1.3-4.5.7ZM400.7,135.7c-.4.4-.7,6.7-.7,14v13.3h9v-28h-3.8c-2.1,0-4.1.3-4.5.7ZM564.7,145.7c-.3.3-1.9.3-3.6.1l-3.2-.3,3.3-4.3,3.3-4.3.3,4.2c.2,2.3.1,4.4-.2,4.6ZM135.2,143.3c.4.6.8,3.3.8,5.9,0,5.7-1.9,8.1-6.4,7.6l-3.1-.3-.3-7.2c-.3-6.2,0-7.2,1.5-7.7,2.5-.7,6.6.2,7.5,1.6ZM201.8,149.2l.3,7.8h-4c-4.8,0-6.1-1.8-6.1-8.1s2.3-8.1,6.4-7.7l3.1.3.3,7.8ZM285.2,143.3c.4.6.8,3.3.8,5.9,0,5.7-1.9,8.1-6.4,7.6l-3.1-.3-.3-7.2c-.3-6.2,0-7.2,1.5-7.7,2.5-.7,6.6.2,7.5,1.6ZM317.8,149.2l.3,7.8h-4c-4.8,0-6.1-1.8-6.1-8.1s2.3-8.1,6.4-7.7l3.1.3.3,7.8ZM385.8,149.2l.3,7.8h-4c-4.8,0-6.1-1.8-6.1-8.1s2.3-8.1,6.4-7.7l3.1.3.3,7.8ZM535.2,143.3c.4.6.8,3.3.8,5.9,0,5.7-1.9,8.1-6.4,7.6l-3.1-.3-.3-7.2c-.3-6.2,0-7.2,1.5-7.7,2.5-.7,6.6.2,7.5,1.6ZM797.4,171.3c-4.1,2.1-7.8,4.5-8.1,5.3-.4,1.1,3.3,5.5,12,14.2,7,7,12.6,13.1,12.6,13.7s-1,2-2.3,3.2l-2.3,2.1-12.4-12.5c-8.6-8.7-13.1-12.5-14.7-12.5s-3,1.5-6,7.5c-2.3,4.6-4,7-4.4,6.2-.4-.7-4.2-11.4-8.4-23.7s-7.9-23-8.1-23.6c-.2-.6,10.8,2.8,24.6,7.5l25,8.6-7.5,3.8ZM220.3,159.8c-.3,1-1.2,3.3-2,5.1-1.9,4.7-1.7,5.3,1.4,4.9,2.1-.2,3.4-1.4,5.5-5.3,1.5-2.8,2.7-5.3,2.8-5.8,0-.4-1.6-.8-3.5-.8s-3.7.5-4.1,1.8ZM337.3,159.8c-.3,1-1.2,3.3-2,5.1-1.9,4.7-1.7,5.3,1.4,4.9,2.1-.2,3.4-1.4,5.5-5.3,1.5-2.8,2.7-5.3,2.8-5.8,0-.4-1.6-.8-3.5-.8s-3.7.5-4.1,1.8ZM436.3,159.8c-.3,1-1.2,3.3-2,5.1-1.9,4.7-1.7,5.3,1.4,4.9,2.1-.2,3.4-1.4,5.5-5.3,1.5-2.8,2.7-5.3,2.8-5.8,0-.4-1.6-.8-3.5-.8s-3.7.5-4.1,1.8Z" fill-rule="evenodd"/>
  </g>
  <g id="Layer_3">
    <rect fill="currentColor" x="507.3" width="53" height="8.7"/>
    <rect fill="currentColor" x="593.2" width="45.1" height="8.8"/>
    <rect fill="currentColor" x="676.2" width="47.2" height="8.8"/>
    <rect fill="currentColor" x="760.2" width="43.3" height="8.8"/>
    <rect fill="currentColor" x="876.3" y="63.7" width="7.7" height="38"/>
    <rect fill="currentColor" x="876.2" y="124.9" width="7.8" height="50"/>
    <rect fill="currentColor" x="760.3" y="231.9" width="43.1" height="9.1"/>
    <rect fill="currentColor" x="676.3" y="231.8" width="47.1" height="9.2"/>
    <rect fill="currentColor" x="593.3" y="231.8" width="44.9" height="9.2"/>
    <rect fill="currentColor" x="507.4" y="231.9" width="52.9" height="9.1"/>
    <rect fill="currentColor" x="424.4" y="231.8" width="48" height="9.2"/>
    <rect fill="currentColor" x="338.3" y="231.8" width="45" height="9.2"/>
    <rect fill="currentColor" x="272.3" y="231.8" width="33.1" height="9.2"/>
    <rect fill="currentColor" x="214.2" y="231.8" width="31.2" height="9.2"/>
    <rect fill="currentColor" x="138.3" y="231.8" width="56" height="9.2"/>
    <rect fill="currentColor" x="60.3" y="231.8" width="48.9" height="9.2"/>
    <rect fill="currentColor" x="-.6" y="124.9" width="9.1" height="50"/>
    <rect fill="currentColor" x="-.6" y="63.9" width="9.1" height="38.3"/>
    <rect fill="currentColor" x="60" y="-.2" width="49.4" height="9"/>
    <rect fill="currentColor" x="138.3" y="-.2" width="56" height="9"/>
    <rect fill="currentColor" x="213.9" y="-.2" width="31.6" height="9"/>
    <rect fill="currentColor" x="272.2" width="33.2" height="8.8"/>
    <rect fill="currentColor" x="338.2" width="45.3" height="8.8"/>
    <rect fill="currentColor" x="424.3" width="48" height="8.7"/>
    <path fill="currentColor" d="M876.4,0h-32.2v8.8h32.2v26h7.6V6.1c0-3.4-2.7-6.1-6.1-6.1h-1.5Z" fill-rule="evenodd"/>
    <path fill="currentColor" d="M876.7,240.8h-32.2v-8.8h32.2s-.1-29.2-.1-29.2h7.5s.3,29.2.3,29.2v2.6c0,3.4-2.7,6.1-6.1,6.1h-1.5Z" fill-rule="evenodd"/>
    <path fill="currentColor" d="M9.7,0h19.7v8.8H10c0,0-.2,26-.2,26H2.1s0-26,0-26v-2.6C2.1,2.7,4.8,0,8.2,0h1.5Z" fill-rule="evenodd"/>
    <path fill="currentColor" d="M7.6,240.9h19.7v-8.8s-19.7,0-19.7,0v-29.2c.1,0-7.6,0-7.6,0v31.9c0,3.4,2.7,6.1,6.1,6.1h1.5Z" fill-rule="evenodd"/>
  </g>
</svg>