<svg width="27" height="27" viewBox="0 0 27 27" fill="none" xmlns="http://www.w3.org/2000/svg">
<path fill-rule="evenodd" clip-rule="evenodd" d="M12.6417 0.288824C12.3563 0.574118 12.3529 0.603059 12.3529 2.70588C12.3529 4.80871 12.3563 4.83765 12.6417 5.12294C12.8005 5.28176 13.0676 5.41177 13.2352 5.41177C13.4029 5.41177 13.6699 5.28176 13.8288 5.12294C14.1142 4.83765 14.1176 4.80871 14.1176 2.70588C14.1176 0.603059 14.1142 0.574118 13.8288 0.288824C13.6699 0.13 13.4029 0 13.2352 0C13.0676 0 12.8005 0.13 12.6417 0.288824ZM3.17641 3.52941C2.6817 4.02412 2.82935 4.29671 4.49829 5.96906C5.72558 7.19882 6.12253 7.52941 6.37217 7.52941C6.73264 7.52941 7.17641 7.05271 7.17641 6.66541C7.17641 6.50918 6.61406 5.85906 5.61276 4.85777C3.93817 3.18318 3.66923 3.03659 3.17641 3.52941ZM20.5637 4.79906C19.1851 6.17765 19.0588 6.34024 19.0588 6.73365C19.0588 7.04412 19.1312 7.21388 19.3203 7.34624C19.8648 7.72765 20.0812 7.60624 21.6747 6.02565C23.0004 4.71059 23.1921 4.47188 23.2021 4.124C23.2099 3.84341 23.1348 3.66247 22.9465 3.51012C22.4007 3.06812 22.1701 3.19282 20.5637 4.79906ZM12.1764 7.40871C10.8571 7.70059 9.8837 8.24965 8.967 9.21894C7.28476 10.9975 6.92582 13.7488 8.091 15.9324C8.26617 16.2607 8.73653 16.8608 9.13617 17.2659C11.4004 19.5607 15.0701 19.5607 17.3343 17.2659C18.5048 16.0795 19.0588 14.7659 19.0588 13.1765C19.0588 10.6826 17.472 8.45977 15.1081 7.64271C14.317 7.36918 12.8752 7.25412 12.1764 7.40871ZM0.635237 12.3982C0.0488843 12.6616 -0.069704 13.3124 0.389825 13.7442C0.648178 13.9868 0.768766 14 2.73323 14C3.87229 14 4.88994 13.9671 4.99464 13.9269C5.30111 13.8093 5.545 13.2331 5.42358 12.9135C5.20606 12.3413 5.03394 12.2961 2.95276 12.2642C1.48359 12.2416 0.90959 12.2749 0.635237 12.3982ZM21.6941 12.4033C21.1525 12.6391 21.0042 13.2312 21.3596 13.7385C21.5375 13.9925 21.6043 14 23.6919 14C25.7865 14 25.8478 13.9931 26.0971 13.7278C26.4637 13.3374 26.4251 12.9053 25.9909 12.5399C25.6357 12.2409 25.5958 12.2354 23.8438 12.2399C22.6131 12.2431 21.9455 12.2938 21.6941 12.4033ZM4.5097 20.4944C2.82535 22.1622 2.67441 22.4392 3.17641 22.9412C3.67006 23.4348 3.93723 23.2884 5.62911 21.5965C7.15276 20.0728 7.20641 20.0026 7.13241 19.6259C7.09017 19.4111 6.96676 19.1692 6.85817 19.0882C6.38841 18.7381 6.12253 18.8973 4.5097 20.4944ZM19.3203 19.1244C19.1312 19.2567 19.0588 19.4265 19.0588 19.7369C19.0588 20.1304 19.1851 20.2929 20.5637 21.6715C21.8347 22.9424 22.1247 23.1765 22.4278 23.1765C22.8802 23.1765 23.2156 22.8195 23.2156 22.3382C23.2156 22.0269 22.9918 21.7515 21.6871 20.4574C20.0807 18.8638 19.8654 18.7425 19.3203 19.1244ZM12.6417 21.3476C12.3563 21.6329 12.3529 21.6619 12.3529 23.7647C12.3529 25.8675 12.3563 25.8965 12.6417 26.1818C12.8005 26.3406 13.0676 26.4706 13.2352 26.4706C13.4029 26.4706 13.6699 26.3406 13.8288 26.1818C14.1142 25.8965 14.1176 25.8675 14.1176 23.7647C14.1176 21.6619 14.1142 21.6329 13.8288 21.3476C13.6699 21.1888 13.4029 21.0588 13.2352 21.0588C13.0676 21.0588 12.8005 21.1888 12.6417 21.3476Z" fill="currentColor"/>
</svg>
