<?xml version="1.0" encoding="UTF-8"?>
<svg id="Layer_1" xmlns="http://www.w3.org/2000/svg" version="1.1" viewBox="0 0 26 29">
  <!-- Generator: Adobe Illustrator 29.1.0, SVG Export Plug-In . SVG Version: 2.1.0 Build 142)  -->
  <path fill="currentColor" d="M14.7,8.1c.6-.2,1-.5,1.5-1,1.1-1.1,1.6-2.1,1.6-3.6v-.6s-.2,0-.2,0c-.1,0-.4,0-.6.1-.9.2-1.7.7-2.4,1.4-.7.7-1.1,1.3-1.4,2.2-.1.3-.1.5-.1,1v.6s.2,0,.2,0c.3,0,1,0,1.3-.2Z"/>
  <path fill="currentColor" d="M22.6,14.1c-.4-2.9-2.2-5-4.8-5.5-.1,0-.5,0-.9,0-.7,0-1.2.1-2.1.4-1.2.5-1.4.5-1.6.5-.3,0-.4,0-1.6-.5-.9-.3-1.4-.4-2.1-.4-.3,0-.7,0-.9,0-2.6.6-4.4,2.6-4.8,5.5,0,.6,0,1.8,0,2.5.3,2.7,1.3,5.2,3,7.4.8,1,1.4,1.6,2,1.9.4.2.4.2.9.2.6,0,.9,0,2-.5.7-.2,1.1-.4,1.5-.4.4,0,.8.2,1.5.4,1.1.4,1.4.5,2,.5.5,0,.5,0,.9-.2.7-.3,1.3-.9,2-1.9,1.7-2.2,2.7-4.7,3-7.4,0-.6,0-1.9,0-2.5Z"/>
</svg>