<svg width="23" height="23" viewBox="0 0 23 23" fill="none" xmlns="http://www.w3.org/2000/svg">
<path d="M20.9755 0H8.77282C7.77936 0 6.97269 0.806673 6.97269 1.80013V7.03222H1.80013C0.806673 7.03222 0 7.83889 0 8.83235V21.0351C0 22.0285 0.806673 22.8352 1.80013 22.8352H14.0029C14.9963 22.8352 15.803 22.0285 15.803 21.0351V15.803H20.9776C21.9711 15.803 22.7777 14.9963 22.7777 14.0029V1.80013C22.7777 0.806673 21.9711 0 20.9776 0H20.9755ZM11.9769 19.0092H3.70905V10.7413H11.9769V19.0092ZM18.9517 11.9769H15.803V8.83235C15.803 7.83889 14.9963 7.03222 14.0029 7.03222H10.6838V3.70905H18.9517V11.9769Z" fill="currentColor"/>
</svg>
