<?xml version="1.0" encoding="UTF-8"?>
<svg id="Layer_1" xmlns="http://www.w3.org/2000/svg" version="1.1" viewBox="0 0 23 24">
  <!-- Generator: Adobe Illustrator 29.1.0, SVG Export Plug-In . SVG Version: 2.1.0 Build 142)  -->
  <path fill="currentColor" d="M15.7,3.1c-1.4-1.4-3.5-2-5.3-1.7h0c-2.2.4-4.1,2.1-4.6,4.3-.2.8-.2,2.3,0,3.1.4,1.3,1.2,2.6,2.4,3.4.5.4,1.5.8,2.1.9,0,.4.2,1.9.3,4.5v.4q.3,4.6.6,4.8h.3c.2,0,.4,0,.4-.2.3-.3.9-8.5,1-9.5,0,0,.2,0,.3,0,2.5-.7,4.2-3,4.2-5.6s-.5-3-1.7-4.3h0Z"/>
</svg>