<?xml version="1.0" encoding="UTF-8"?>
<svg id="a" xmlns="http://www.w3.org/2000/svg" version="1.1" viewBox="0 0 91.1 86.3">
  <!-- Generator: Adobe Illustrator 29.1.0, SVG Export Plug-In . SVG Version: 2.1.0 Build 142)  -->
  <path fill="currentColor" d="M72.9,21.6s-9-14.9-27.5-14.6-26.7,15.5-26.7,15.5c0,0-1.7,4.3-1.7,6.9s1.7,6.5,1.7,6.5c0,0,2.6,9.4,26.2,12.6,6,1.2,15.1,3.2,15.1,10.1s-6.9,9.7-12.5,10-16.8-.5-20.2-10c-2.6.9-12,5.2-12,5.2,0,0,5.2,16.9,29.7,17.5,18.2-1.4,33.8-8.8,30.5-29.5,0,0-3.4-12.9-29.3-14.6-6-.9-13.8-3.4-13.8-7.7s5.2-9.5,13.8-9.5,9.5,2.6,15.5,8.6c6-3.4,11.2-6.9,11.2-6.9h0Z"/>
</svg>