<?xml version="1.0" encoding="UTF-8"?>
<svg id="Layer_3" xmlns="http://www.w3.org/2000/svg" version="1.1" viewBox="0 0 27 27">
  <!-- Generator: Adobe Illustrator 29.1.0, SVG Export Plug-In . SVG Version: 2.1.0 Build 142)  -->
  <path fill="currentColor" d="M6.1,6.3c-3.8,4-3.6,10.3.4,14.2,4,3.8,10.3,3.6,14.2-.4,3.8-4,3.6-10.3-.4-14.2s-10.3-3.6-14.2.4ZM7.3,7.3c2-2,4.2-2.4,4.2-2.4l-6.4,7s.4-2.7,2.3-4.6ZM5.1,14.3L13.9,4.7s1.6,0,2.8.7c-.5.5-10.8,11.6-10.8,11.6,0,0-.7-1.8-.9-2.7ZM19.5,18.8c-2,2.1-4.3,2.5-4.3,2.5l6.4-6.9s-.1,2.3-2.1,4.4ZM21.7,12c-.6.6-8.8,9.5-8.8,9.5,0,0-2.2-.4-2.8-.7l10.8-11.5s.8,1.5.9,2.7ZM8.6,20.1s-1.3-1.1-1.8-1.7l11.3-12.1s1.1.8,1.8,1.7c-.5.5-11.3,12.2-11.3,12.2Z" fill-rule="evenodd"/>
</svg>