<?xml version="1.0" encoding="UTF-8"?>
<svg id="Layer_1" xmlns="http://www.w3.org/2000/svg" version="1.1" viewBox="0 0 25 27">
  <!-- Generator: Adobe Illustrator 29.1.0, SVG Export Plug-In . SVG Version: 2.1.0 Build 142)  -->
  <path fill="currentColor" d="M10.7,4.6c-.5,0-2.2,0-3.7,0-1.6,0-3.2,0-3.3,0h-.2v8.2h4.5s3.9,0,3.9,0V4.6h-.2c0,0-.6,0-1.1,0Z"/>
  <path fill="currentColor" d="M20.8,4.6c-.5,0-2.2,0-3.7,0-1.6,0-3.2,0-3.3,0h-.2v8.2h4.5s3.9,0,3.9,0V4.6h-.2c0,0-.6,0-1.1,0Z"/>
  <path fill="currentColor" d="M10.7,14.7c-.5,0-2.2,0-3.7,0-1.6,0-3.2,0-3.3,0h-.2v8.2h4.5s3.9,0,3.9,0v-8.2h-.2c0,0-.6,0-1.1,0Z"/>
  <path fill="currentColor" d="M20.8,14.7c-.5,0-2.2,0-3.7,0-1.6,0-3.2,0-3.3,0h-.2v8.2h4.5s3.9,0,3.9,0v-8.2h-.2c0,0-.6,0-1.1,0Z"/>
</svg>